<?xml version="1.0" standalone="no"?><!DOCTYPE svg PUBLIC "-//W3C//DTD SVG 1.1//EN" "http://www.w3.org/Graphics/SVG/1.1/DTD/svg11.dtd"><svg t="1681980687458" class="icon" viewBox="0 0 1024 1024" version="1.1" xmlns="http://www.w3.org/2000/svg" p-id="4788" xmlns:xlink="http://www.w3.org/1999/xlink" width="200" height="200"><path d="M935.005091 459.752727a34.909091 34.909091 0 1 1 49.361454 49.361455l-78.382545 78.382545a34.816 34.816 0 0 1-49.338182 0l-78.405818-78.382545a34.909091 34.909091 0 1 1 49.361455-49.361455l14.801454 14.824728C818.525091 311.738182 678.330182 186.181818 508.928 186.181818c-130.466909 0-250.484364 76.706909-305.710545 195.397818a34.932364 34.932364 0 0 1-63.301819-29.463272C206.522182 208.896 351.418182 116.363636 508.904727 116.363636c210.152727 0 383.534545 159.953455 404.992 364.474182l21.085091-21.085091z m-73.960727 189.021091a34.932364 34.932364 0 0 1 16.965818 46.382546C811.310545 838.353455 666.461091 930.909091 508.951273 930.909091c-210.106182 0-383.534545-159.953455-404.968728-364.497455l-21.108363 21.108364a34.909091 34.909091 0 1 1-49.384727-49.361455l78.42909-78.42909a34.909091 34.909091 0 0 1 49.338182 0l78.382546 78.42909a34.909091 34.909091 0 1 1-49.338182 49.338182l-14.824727-14.801454C199.354182 735.534545 339.549091 861.090909 508.951273 861.090909c130.490182 0 250.507636-76.706909 305.710545-195.397818a34.909091 34.909091 0 0 1 46.382546-16.919273z" fill="#4E6EF3" p-id="4789"></path></svg>